<svg version="1.1" xmlns="http://www.w3.org/2000/svg" xmlns:xlink="http://www.w3.org/1999/xlink" width="1024.000000pt" height="1024.000000pt" viewBox="0,0,256,256"><g fill="#ff5656" fill-rule="nonzero" stroke="none" stroke-width="1" stroke-linecap="butt" stroke-linejoin="miter" stroke-miterlimit="10" stroke-dasharray="" stroke-dashoffset="0" font-family="none" font-weight="none" font-size="none" text-anchor="none" style="mix-blend-mode: normal"><g transform="translate(0.06217,0.03627) scale(0.25,0.25)"><g transform="translate(0,1024) scale(0.1,-0.1)"><path d="M4885,8954c-22,-2 -92,-9 -155,-15c-950,-89 -1868,-566 -2509,-1304c-874,-1007 -1162,-2383 -765,-3665c100,-321 275,-687 467,-975c581,-869 1496,-1470 2520,-1654c239,-44 381,-55 672,-55c293,-1 403,8 652,49c753,127 1464,488 2017,1025c597,580 982,1307 1120,2115c43,246 51,355 50,655c0,236 -4,314 -23,455c-95,716 -357,1349 -786,1901c-112,142 -180,187 -290,187c-89,0 -156,-26 -215,-81c-27,-26 -646,-785 -1376,-1687c-729,-902 -1329,-1643 -1333,-1647c-3,-4 -62,44 -131,105c-869,781 -1130,1010 -1169,1030c-66,32 -207,32 -268,-1c-180,-95 -225,-339 -90,-480c18,-19 361,-329 764,-690c512,-459 750,-666 790,-687c49,-26 67,-30 137,-30c96,0 155,26 222,97c22,23 624,764 1338,1645c713,881 1300,1604 1305,1607c5,4 36,-40 69,-96c298,-513 443,-1047 443,-1638c0,-406 -65,-768 -206,-1145c-213,-569 -618,-1096 -1130,-1470c-437,-319 -972,-526 -1530,-590c-185,-22 -525,-22 -710,0c-911,105 -1716,575 -2260,1320c-688,941 -802,2215 -294,3274c173,360 377,641 676,931c643,624 1507,947 2401,899c182,-9 200,-11 377,-40c220,-36 411,-90 645,-181c150,-58 157,-60 230,-56c119,7 207,63 255,163c67,136 29,296 -92,385c-21,16 -94,51 -163,78c-318,127 -627,204 -985,248c-122,14 -579,27 -670,18z"></path></g></g></g></svg>